<svg width="116" height="137" viewBox="0 0 116 137" fill="none" xmlns="http://www.w3.org/2000/svg">
<g filter="url(#filter0_d_54_881)">
<path d="M52.925 36.5H85.265C92.965 36.5 98.845 38.18 102.905 41.54C107.035 44.9 109.1 49.765 109.1 56.135C109.1 59.635 108.05 62.785 105.95 65.585C103.85 68.385 100.805 70.31 96.815 71.36C101.155 72.2 104.655 74.23 107.315 77.45C109.975 80.6 111.305 84.73 111.305 89.84C111.305 96.07 109.1 101.005 104.69 104.645C100.35 108.215 94.4 110 86.84 110H52.925V36.5ZM84.95 66.11C87.75 66.11 89.99 65.305 91.67 63.695C93.42 62.015 94.295 59.81 94.295 57.08C94.295 54.35 93.42 52.18 91.67 50.57C89.99 48.89 87.75 48.05 84.95 48.05H67.73V66.11H84.95ZM83.69 98.45C88.03 98.45 91.25 97.61 93.35 95.93C95.45 94.18 96.5 91.555 96.5 88.055C96.5 84.555 95.45 81.965 93.35 80.285C91.25 78.535 88.03 77.66 83.69 77.66H67.73V98.45H83.69Z" fill="#787179"/>
<path d="M52.925 36.5V35.5H51.925V36.5H52.925ZM102.905 41.54L102.267 42.3104L102.274 42.3157L102.905 41.54ZM105.95 65.585L106.75 66.185L106.75 66.185L105.95 65.585ZM96.815 71.36L96.5605 70.3929L96.625 72.3418L96.815 71.36ZM107.315 77.45L106.544 78.0869L106.551 78.0952L107.315 77.45ZM104.69 104.645L105.325 105.417L105.327 105.416L104.69 104.645ZM52.925 110H51.925V111H52.925V110ZM91.67 63.695L92.3619 64.417L92.3625 64.4164L91.67 63.695ZM91.67 50.57L90.9629 51.2771L90.9776 51.2918L90.9929 51.3059L91.67 50.57ZM67.73 48.05V47.05H66.73V48.05H67.73ZM67.73 66.11H66.73V67.11H67.73V66.11ZM93.35 95.93L93.9747 96.7109L93.9825 96.7046L93.9902 96.6982L93.35 95.93ZM93.35 80.285L92.7098 81.0532L92.7175 81.0596L92.7253 81.0659L93.35 80.285ZM67.73 77.66V76.66H66.73V77.66H67.73ZM67.73 98.45H66.73V99.45H67.73V98.45ZM52.925 37.5H85.265V35.5H52.925V37.5ZM85.265 37.5C92.8366 37.5 98.4534 39.1539 102.267 42.3104L103.543 40.7696C99.2366 37.2061 93.0934 35.5 85.265 35.5V37.5ZM102.274 42.3157C106.124 45.448 108.1 50.0004 108.1 56.135H110.1C110.1 49.5296 107.946 44.352 103.536 40.7643L102.274 42.3157ZM108.1 56.135C108.1 59.4186 107.12 62.3581 105.15 64.985L106.75 66.185C108.98 63.2119 110.1 59.8514 110.1 56.135H108.1ZM105.15 64.985C103.208 67.5737 100.373 69.3896 96.5605 70.3929L97.0695 72.3271C101.237 71.2304 104.492 69.1963 106.75 66.185L105.15 64.985ZM96.625 72.3418C100.752 73.1405 104.041 75.0567 106.544 78.0869L108.086 76.8131C105.269 73.4033 101.558 71.2595 97.005 70.3782L96.625 72.3418ZM106.551 78.0952C109.025 81.0246 110.305 84.9077 110.305 89.84H112.305C112.305 84.5523 110.925 80.1754 108.079 76.8048L106.551 78.0952ZM110.305 89.84C110.305 95.802 108.211 100.442 104.053 103.874L105.327 105.416C109.989 101.568 112.305 96.338 112.305 89.84H110.305ZM104.055 103.873C99.9471 107.252 94.2484 109 86.84 109V111C94.5516 111 100.753 109.178 105.325 105.417L104.055 103.873ZM86.84 109H52.925V111H86.84V109ZM53.925 110V36.5H51.925V110H53.925ZM84.95 67.11C87.9522 67.11 90.4591 66.2405 92.3619 64.417L90.9781 62.973C89.5209 64.3695 87.5478 65.11 84.95 65.11V67.11ZM92.3625 64.4164C94.3345 62.5233 95.295 60.0448 95.295 57.08H93.295C93.295 59.5752 92.5055 61.5067 90.9775 62.9736L92.3625 64.4164ZM95.295 57.08C95.295 54.1159 94.3342 51.6622 92.3471 49.8341L90.9929 51.3059C92.5058 52.6978 93.295 54.5841 93.295 57.08H95.295ZM92.3771 49.8629C90.4764 47.9622 87.9643 47.05 84.95 47.05V49.05C87.5357 49.05 89.5036 49.8178 90.9629 51.2771L92.3771 49.8629ZM84.95 47.05H67.73V49.05H84.95V47.05ZM66.73 48.05V66.11H68.73V48.05H66.73ZM67.73 67.11H84.95V65.11H67.73V67.11ZM83.69 99.45C88.1275 99.45 91.6174 98.5967 93.9747 96.7109L92.7253 95.1491C90.8826 96.6233 87.9325 97.45 83.69 97.45V99.45ZM93.9902 96.6982C96.3792 94.7074 97.5 91.7619 97.5 88.055H95.5C95.5 91.3481 94.5208 93.6526 92.7098 95.1618L93.9902 96.6982ZM97.5 88.055C97.5 84.3502 96.3797 81.4282 93.9747 79.5041L92.7253 81.0659C94.5203 82.5018 95.5 84.7598 95.5 88.055H97.5ZM93.9902 79.5168C91.6313 77.5511 88.1346 76.66 83.69 76.66V78.66C87.9254 78.66 90.8687 79.5189 92.7098 81.0532L93.9902 79.5168ZM83.69 76.66H67.73V78.66H83.69V76.66ZM66.73 77.66V98.45H68.73V77.66H66.73ZM67.73 99.45H83.69V97.45H67.73V99.45Z" fill="#454343"/>
<path d="M8.075 55.5H15.01C18.4933 55.5 21.28 55.975 23.37 56.925C25.46 57.875 27.265 59.395 28.785 61.485C30.305 63.5117 32.0783 66.5833 34.105 70.7L39.615 81.815L45.125 70.7C47.1517 66.5833 48.925 63.5117 50.445 61.485C51.965 59.395 53.77 57.875 55.86 56.925C57.95 55.975 60.7367 55.5 64.22 55.5H71.155V122H58.995V69.465C58.235 69.465 57.6017 69.8133 57.095 70.51C56.5883 71.2067 55.8283 72.4417 54.815 74.215L39.615 102.43L24.415 74.215C23.4017 72.4417 22.6417 71.2067 22.135 70.51C21.6283 69.8133 20.995 69.4333 20.235 69.37V122H8.075V55.5Z" fill="#787171"/>
<path d="M8.075 55.5V54.5H7.075V55.5H8.075ZM23.37 56.925L23.7838 56.0146L23.7838 56.0146L23.37 56.925ZM28.785 61.485L27.9763 62.0732L27.9806 62.0791L27.985 62.085L28.785 61.485ZM34.105 70.7L33.2078 71.1417L33.209 71.1441L34.105 70.7ZM39.615 81.815L38.719 82.2591L39.615 84.0665L40.511 82.2591L39.615 81.815ZM45.125 70.7L46.021 71.1441L46.0222 71.1417L45.125 70.7ZM50.445 61.485L51.245 62.085L51.2494 62.0791L51.2537 62.0732L50.445 61.485ZM55.86 56.925L55.4462 56.0146L55.4462 56.0146L55.86 56.925ZM71.155 55.5H72.155V54.5H71.155V55.5ZM71.155 122V123H72.155V122H71.155ZM58.995 122H57.995V123H58.995V122ZM58.995 69.465H59.995V68.465H58.995V69.465ZM57.095 70.51L56.2863 69.9218L56.2863 69.9218L57.095 70.51ZM54.815 74.215L53.9468 73.7189L53.9406 73.7297L53.9346 73.7407L54.815 74.215ZM39.615 102.43L38.7346 102.904L39.615 104.538L40.4954 102.904L39.615 102.43ZM24.415 74.215L25.2954 73.7407L25.2894 73.7297L25.2832 73.7189L24.415 74.215ZM22.135 70.51L22.9437 69.9218L22.9437 69.9218L22.135 70.51ZM20.235 69.37L20.318 68.3735L19.235 68.2832V69.37H20.235ZM20.235 122V123H21.235V122H20.235ZM8.075 122H7.075V123H8.075V122ZM8.075 56.5H15.01V54.5H8.075V56.5ZM15.01 56.5C18.4175 56.5 21.0457 56.967 22.9562 57.8354L23.7838 56.0146C21.5143 54.983 18.5692 54.5 15.01 54.5V56.5ZM22.9562 57.8354C24.87 58.7053 26.5449 60.105 27.9763 62.0732L29.5937 60.8968C27.9851 58.685 26.05 57.0447 23.7838 56.0146L22.9562 57.8354ZM27.985 62.085C29.4493 64.0374 31.1904 67.0437 33.2078 71.1417L35.0022 70.2583C32.9663 66.123 31.1607 62.986 29.585 60.885L27.985 62.085ZM33.209 71.1441L38.719 82.2591L40.511 81.3709L35.001 70.2559L33.209 71.1441ZM40.511 82.2591L46.021 71.1441L44.229 70.2559L38.719 81.3709L40.511 82.2591ZM46.0222 71.1417C48.0396 67.0437 49.7807 64.0374 51.245 62.085L49.645 60.885C48.0693 62.986 46.2637 66.123 44.2278 70.2583L46.0222 71.1417ZM51.2537 62.0732C52.6851 60.105 54.36 58.7053 56.2738 57.8354L55.4462 56.0146C53.18 57.0447 51.2449 58.685 49.6363 60.8968L51.2537 62.0732ZM56.2738 57.8354C58.1843 56.967 60.8125 56.5 64.22 56.5V54.5C60.6608 54.5 57.7157 54.983 55.4462 56.0146L56.2738 57.8354ZM64.22 56.5H71.155V54.5H64.22V56.5ZM70.155 55.5V122H72.155V55.5H70.155ZM71.155 121H58.995V123H71.155V121ZM59.995 122V69.465H57.995V122H59.995ZM58.995 68.465C57.8689 68.465 56.9522 69.0061 56.2863 69.9218L57.9037 71.0982C58.2511 70.6205 58.6011 70.465 58.995 70.465V68.465ZM56.2863 69.9218C55.7441 70.6673 54.9604 71.9449 53.9468 73.7189L55.6832 74.7111C56.6962 72.9384 57.4325 71.7461 57.9037 71.0982L56.2863 69.9218ZM53.9346 73.7407L38.7346 101.956L40.4954 102.904L55.6954 74.6893L53.9346 73.7407ZM40.4954 101.956L25.2954 73.7407L23.5346 74.6893L38.7346 102.904L40.4954 101.956ZM25.2832 73.7189C24.2696 71.9449 23.4859 70.6673 22.9437 69.9218L21.3263 71.0982C21.7975 71.7461 22.5338 72.9384 23.5468 74.7111L25.2832 73.7189ZM22.9437 69.9218C22.2908 69.024 21.4073 68.4642 20.318 68.3735L20.152 70.3665C20.5827 70.4024 20.9659 70.6026 21.3263 71.0982L22.9437 69.9218ZM19.235 69.37V122H21.235V69.37H19.235ZM20.235 121H8.075V123H20.235V121ZM9.075 122V55.5H7.075V122H9.075Z" fill="#545050"/>
</g>
<defs>
<filter id="filter0_d_54_881" x="4.07495" y="36.5" width="111.23" height="93.5" filterUnits="userSpaceOnUse" color-interpolation-filters="sRGB">
<feFlood flood-opacity="0" result="BackgroundImageFix"/>
<feColorMatrix in="SourceAlpha" type="matrix" values="0 0 0 0 0 0 0 0 0 0 0 0 0 0 0 0 0 0 127 0" result="hardAlpha"/>
<feOffset dy="4"/>
<feGaussianBlur stdDeviation="2"/>
<feComposite in2="hardAlpha" operator="out"/>
<feColorMatrix type="matrix" values="0 0 0 0 0 0 0 0 0 0 0 0 0 0 0 0 0 0 0.25 0"/>
<feBlend mode="normal" in2="BackgroundImageFix" result="effect1_dropShadow_54_881"/>
<feBlend mode="normal" in="SourceGraphic" in2="effect1_dropShadow_54_881" result="shape"/>
</filter>
</defs>
</svg>
